<?xml version="1.0" standalone="no"?>
<!DOCTYPE svg PUBLIC "-//W3C//DTD SVG 20010904//EN"
 "http://www.w3.org/TR/2001/REC-SVG-20010904/DTD/svg10.dtd">
<svg version="1.0" xmlns="http://www.w3.org/2000/svg"
 width="500.000000pt" height="500.000000pt" viewBox="0 0 500.000000 500.000000"
 preserveAspectRatio="xMidYMid meet">

<g transform="translate(0.000000,500.000000) scale(0.100000,-0.100000)"
fill="#000000" stroke="none">
<path d="M3626 4483 c-254 -54 -461 -240 -543 -488 -23 -70 -27 -97 -27 -215
-1 -114 3 -146 22 -209 13 -40 22 -74 20 -76 -2 -2 -283 -143 -625 -314 l-622
-311 -29 43 c-82 118 -224 225 -363 272 -69 24 -105 29 -204 33 -231 8 -402
-62 -557 -226 -76 -81 -130 -172 -166 -280 -22 -67 -26 -94 -26 -212 0 -118 4
-145 26 -212 41 -125 91 -203 192 -303 103 -102 191 -152 329 -187 118 -30
290 -22 406 17 138 47 281 155 362 272 l30 43 622 -311 c342 -171 623 -312
625 -314 2 -2 -7 -36 -20 -76 -19 -63 -23 -95 -22 -209 0 -118 4 -145 27 -215
39 -118 91 -199 187 -295 68 -67 104 -94 170 -127 122 -60 194 -77 330 -77
141 -1 195 11 329 76 89 43 116 62 187 132 70 71 89 97 132 187 56 117 70 167
79 277 15 208 -62 410 -216 562 -87 86 -157 130 -274 174 -78 28 -90 30 -232
30 -136 0 -157 -3 -222 -26 -151 -54 -301 -165 -373 -277 l-30 -46 -625 312
c-344 172 -625 317 -625 321 0 4 10 36 22 72 31 94 31 306 0 400 -12 36 -22
68 -22 72 0 4 281 149 625 321 l626 313 30 -47 c62 -97 198 -206 318 -255 345
-139 745 5 913 331 65 127 82 195 82 340 0 126 -8 169 -51 275 -130 320 -480
506 -817 433z m260 -94 c223 -40 405 -196 480 -414 25 -70 28 -95 28 -200 0
-105 -3 -130 -28 -200 -125 -362 -530 -528 -875 -358 -96 47 -212 159 -264
254 -127 228 -94 526 79 718 55 61 151 132 220 161 101 44 245 60 360 39z
m-2431 -1307 c143 -56 264 -171 335 -317 164 -339 -19 -753 -384 -864 -87 -27
-265 -29 -347 -5 -110 33 -180 75 -270 164 -66 65 -95 102 -123 160 -87 179
-87 382 1 560 49 101 178 231 276 278 105 51 165 62 307 58 113 -2 133 -6 205
-34z m2479 -1252 c200 -51 362 -203 432 -405 25 -70 28 -95 28 -200 0 -105 -3
-130 -28 -200 -85 -247 -299 -409 -556 -422 -188 -10 -340 47 -471 177 -127
126 -189 271 -189 445 0 174 62 319 190 446 85 85 186 142 287 164 90 20 218
18 307 -5z"/>
</g>
</svg>
